<svg xmlns="http://www.w3.org/2000/svg" xmlns:xlink="http://www.w3.org/1999/xlink" version="1.1" id="Layer_1" x="0px" y="0px" width="100%" viewBox="0 0 512 512" enable-background="new 0 0 512 512" xml:space="preserve">
<path fill="#3b719f" opacity="1.000000" stroke="none" d=" M267.773865,471.234985   C264.898651,467.242340 261.745270,464.049133 257.596100,462.045013   C252.070572,459.376129 246.757889,459.426208 241.635468,463.288788   C232.222351,470.386719 224.398819,467.242554 222.325836,455.583923   C221.861053,452.969910 221.948807,450.236206 221.299271,447.680298   C218.904083,438.255280 210.214813,433.372131 199.745850,435.794586   C194.087631,437.103851 188.637283,439.289276 183.006470,440.743988   C171.101486,443.819519 159.233322,443.430481 147.655701,439.237610   C132.669891,433.810486 122.121674,423.892548 117.415779,408.325287   C116.103073,403.982819 114.188019,399.968475 111.230003,396.447235   C106.438026,390.742889 104.638847,384.148834 106.237526,376.843262   C107.093529,372.931549 105.554520,369.864258 103.156555,367.271606   C98.755981,362.513763 96.693832,357.354889 98.525864,350.853058   C99.536659,347.265778 98.019997,344.970612 94.380989,343.624084   C89.859879,341.951172 85.426567,339.930298 81.639053,336.834961   C76.842804,332.915222 74.900627,327.960663 76.207916,321.757904   C78.512352,310.824005 84.160645,301.330566 89.042587,291.503845   C92.007439,285.535980 95.028473,279.596039 97.993011,273.628021   C101.489204,266.589722 101.481430,259.696869 97.837257,252.567810   C93.909721,244.884415 90.054848,237.169952 89.451691,228.205246   C88.719063,217.316116 90.320786,206.643875 91.941078,196.014282   C96.172821,168.253082 103.338066,141.277374 115.679680,115.919212   C130.691772,85.074059 150.835983,58.870152 183.109161,44.318874   C201.129456,36.193913 220.296310,31.909323 239.720886,28.688221   C253.538895,26.396832 267.491791,25.211430 281.446228,25.202290   C307.264587,25.185379 331.955566,31.073572 355.446564,41.679707   C382.121429,53.723335 404.689209,70.897606 420.642792,95.855774   C431.858887,113.402542 437.482666,132.671188 437.290039,153.540146   C437.200989,163.183868 434.701630,165.289291 425.188263,164.461884   C418.447998,163.875671 411.872223,164.181229 406.069397,168.409500   C401.372223,171.832108 397.042236,175.220367 398.841339,182.177109   C399.352783,184.154694 398.727417,186.478729 398.402985,188.610336   C397.361694,195.450851 392.445343,198.681839 385.877716,196.943726   C380.065002,195.405380 377.596161,190.154709 379.690796,183.911697   C380.393921,181.816025 381.610168,180.058533 382.898407,178.306213   C391.327545,166.840240 388.315918,153.502350 375.796448,146.745743   C369.688446,143.449310 367.444458,138.395370 369.820587,133.286865   C372.135773,128.309494 377.595886,126.050995 382.825989,128.001236   C387.208893,129.635574 389.068146,133.243530 389.997864,137.521667   C391.675964,145.243149 395.839264,148.436234 403.608795,147.972214   C410.770691,147.544510 415.996155,142.448898 416.627350,135.215958   C417.119812,129.572754 415.794708,124.138329 413.329010,119.246132   C396.791626,86.434128 370.766907,64.329918 336.329041,51.976456   C331.380554,50.201344 325.616943,55.131138 325.269958,61.051922   C324.724731,70.354881 333.468811,79.642441 343.702606,80.603683   C344.861908,80.712570 346.040924,80.619110 347.198303,80.739563   C353.154694,81.359451 357.913422,84.779068 359.083344,89.230721   C360.227661,93.584801 357.678009,99.156822 352.938873,102.513412   C348.778900,105.459824 344.506531,105.648453 340.527802,102.346100   C338.110901,100.340096 335.495972,98.214272 333.959259,95.567841   C327.102600,83.759651 305.699768,85.887848 298.447083,95.397194   C296.135193,98.428474 293.603149,101.381310 290.751648,103.892998   C284.772705,109.159386 278.708862,107.925751 273.446075,100.730072   C269.266083,95.014877 270.421570,88.843353 276.736206,85.015297   C279.551941,83.308350 282.755463,82.204308 285.851440,81.003143   C295.617523,77.214188 303.126617,70.909813 307.213531,61.162556   C311.788025,50.252319 307.252960,42.467468 295.608459,40.374374   C286.341858,38.708714 276.989166,38.984413 267.700745,39.437332   C252.408463,40.183010 237.188538,41.849144 222.474426,46.462574   C215.325821,48.703934 208.068787,51.301476 207.102417,60.132088   C206.175613,68.601196 210.892014,74.721321 217.258560,79.554985   C224.741318,85.236061 232.758469,86.332489 241.671600,82.542267   C250.021790,78.991425 257.318268,82.733887 259.753754,91.067596   C261.849396,98.238472 257.389008,105.903076 250.025558,107.655876   C245.460953,108.742424 241.563660,106.481674 237.628830,104.818047   C230.237701,101.693100 222.755707,100.137604 214.775970,102.225647   C205.416000,104.674866 199.943619,110.524956 198.277664,120.116814   C196.639709,129.547455 189.931610,134.802612 182.496323,132.731644   C177.278091,131.278198 173.611374,128.219955 172.619034,122.644806   C171.562164,116.707230 173.126770,111.639771 178.305496,108.256989   C185.921188,103.282356 190.998596,96.581978 193.068619,87.700218   C194.103210,83.261131 194.258636,78.778824 192.783646,74.402435   C190.382309,67.277580 184.802399,64.649017 177.808640,67.334564   C171.428864,69.784348 166.442856,74.196037 161.813599,79.050484   C147.309021,94.260582 135.455292,111.244598 127.467583,130.775238   C126.529892,133.067978 125.784760,135.502945 125.392624,137.943039   C124.365288,144.335800 125.752190,147.015305 130.599915,148.795990   C135.009842,150.415863 140.499832,148.509506 143.202026,144.266647   C144.805313,141.749237 145.714096,138.758621 148.020660,136.726898   C150.643784,134.416336 153.575745,132.922394 157.129547,134.682846   C160.830109,136.515991 162.580643,139.656525 162.080688,143.655777   C161.614746,147.382904 159.486664,150.116623 155.646851,151.116089   C144.569946,153.999252 139.728561,165.320312 145.254837,175.496216   C146.206970,177.249451 147.410965,178.885880 148.193939,180.707245   C150.507477,186.089050 148.040894,191.283615 142.513580,192.963333   C137.978882,194.341400 134.134323,191.773270 132.848480,186.157822   C132.184525,183.258255 131.989960,180.239670 131.728241,177.262115   C131.288391,172.257721 129.500793,167.861984 125.883415,164.359406   C121.571846,160.184677 117.872528,160.925171 115.458870,166.504410   C112.728912,172.814819 111.719887,179.610992 110.609512,186.315399   C108.735390,197.631271 107.192650,209.000229 106.869362,220.502380   C106.708450,226.227371 107.012131,231.675705 112.958923,234.642136   C116.890755,236.603439 120.796593,236.096191 124.269707,233.519394   C129.454041,229.673019 131.132507,224.237381 130.339218,218.070038   C129.998062,215.417831 129.675201,212.794434 129.691849,210.124649   C129.714630,206.472015 130.194946,202.825241 134.067810,201.361603   C138.091629,199.840897 142.303574,199.684494 145.797211,202.891922   C149.076584,205.902634 148.848953,209.746704 147.685272,213.550491   C147.213028,215.094116 146.291763,216.618210 145.220566,217.840790   C139.974335,223.828308 140.783951,229.993378 144.481323,236.272202   C147.382980,241.199783 151.607864,244.610062 156.965973,246.536484   C159.343018,247.391129 161.637344,248.312851 163.510925,250.050659   C167.714996,253.950089 168.385727,259.749207 165.077484,263.457672   C161.856873,267.067902 154.752289,267.612335 150.966873,264.230499   C148.624924,262.138214 146.672546,259.594421 144.641510,257.172668   C139.773544,251.368301 133.392578,248.408752 126.054176,247.481369   C120.745674,246.810501 117.317886,249.802612 117.385391,255.211182   C117.500366,264.423920 117.038696,273.474823 113.771904,282.253082   C112.490585,285.696136 114.208351,287.744995 117.964668,287.681274   C122.375725,287.606445 126.007271,285.923615 128.771469,282.374603   C129.987213,280.813690 131.276855,279.199036 132.858185,278.060455   C135.172241,276.394348 137.821793,276.142914 140.344025,277.846680   C142.628220,279.389618 143.643219,281.605927 143.208786,284.317047   C142.754196,287.153931 141.187119,289.210205 138.371933,290.135071   C126.499191,294.035492 123.778145,299.707275 128.116501,311.541656   C128.806259,313.423187 129.455246,315.302246 129.252716,317.370636   C128.931305,320.653229 127.005157,322.498047 123.937378,323.153076   C120.748146,323.833954 118.371803,322.592712 117.036407,319.602112   C116.075066,317.449188 115.642464,315.171478 115.695877,312.792358   C115.744469,310.628418 115.788902,308.454559 115.642143,306.298187   C115.379082,302.433197 114.161270,298.812012 110.146843,297.585968   C105.950386,296.304413 104.272385,300.011536 102.579536,302.735046   C99.328484,307.965546 96.351875,313.369965 94.039291,319.109253   C92.617920,322.636749 92.992828,325.176056 97.189529,326.379944   C99.568451,327.062378 101.797508,328.285553 104.069450,329.319275   C112.218643,333.027039 116.330750,339.545197 116.167442,348.324310   C116.067062,353.721222 117.731720,358.106171 121.134758,362.006470   C124.725639,366.122040 126.012131,370.538330 123.716850,375.790344   C121.579025,380.682007 122.779480,384.779510 126.973915,388.154999   C130.422745,390.930450 131.591583,394.944977 132.346985,399.119812   C133.119949,403.391602 134.060501,407.643646 136.422165,411.362732   C139.316040,415.919891 143.200638,415.922455 145.588974,411.212402   C149.274750,403.943726 148.950256,396.044556 148.392914,388.218262   C148.314194,387.112732 147.036697,385.993683 146.124557,385.067566   C144.372864,383.288940 142.369095,381.751617 140.677551,379.922180   C136.761505,375.686829 136.097656,371.637054 138.474121,367.721893   C140.837692,363.828033 146.222580,361.731812 150.674835,362.972382   C154.943527,364.161865 158.095520,368.705200 158.130280,373.718811   C158.239029,389.404816 168.154510,397.292969 183.644241,394.052948   C185.759857,393.610413 187.919052,393.046234 190.050049,393.077881   C194.092896,393.137909 198.294693,393.528320 200.378448,397.739594   C202.164124,401.348450 202.208298,405.251709 199.987549,408.716797   C197.519547,412.567749 193.533432,413.291107 189.376968,412.542145   C185.791275,411.896057 182.334061,410.546478 178.751556,409.871155   C171.228653,408.453033 164.052841,409.308746 158.161972,414.677826   C153.821030,418.634247 154.543137,422.611359 160.130722,424.480011   C168.765854,427.367828 177.241577,425.836578 185.373352,422.193695   C194.414856,418.143280 203.676743,416.023438 213.495926,418.781189   C220.810654,420.835510 226.424026,425.531494 231.464005,430.969971   C236.061066,435.930450 241.012863,440.267181 247.899551,441.719269   C258.736694,444.004364 266.078186,438.180389 265.735565,427.132416   C265.568939,421.760498 265.590454,416.885132 270.725098,413.464722   C275.037567,410.591980 280.110382,410.497253 283.605438,413.709534   C287.369904,417.169312 288.598419,423.967468 285.940918,427.877960   C284.645752,429.783752 282.970856,431.456055 281.334198,433.101105   C271.713562,442.770630 272.101532,455.237823 282.440216,464.127563   C284.577820,465.965546 286.969604,467.520172 289.312683,469.104126   C293.519257,471.947754 295.306946,475.895508 294.034180,480.752930   C292.884491,485.140594 290.419434,488.656250 285.377625,489.313080   C280.037628,490.008728 276.321075,487.472931 273.914734,483.031158   C271.861847,479.241882 270.695190,474.986572 267.773865,471.234985  z"/>
<path fill="#3b719f" opacity="1.000000" stroke="none" d=" M389.912292,230.531830   C392.348877,237.681168 391.412323,243.955566 385.940460,248.684662   C380.563293,253.331940 374.467865,252.175400 368.648804,249.159836   C358.884003,244.099518 348.784210,242.562500 338.288788,246.410324   C330.778229,249.163864 325.274719,253.697998 325.009155,262.619263   C324.941925,264.877960 324.172607,267.244965 323.209625,269.322937   C320.617432,274.916565 316.161285,278.119568 309.897339,278.242096   C304.409973,278.349457 298.904449,274.240967 296.894592,268.881317   C294.856323,263.445862 296.346497,257.701630 300.915161,253.464676   C301.523926,252.900085 302.138641,252.294205 302.856934,251.902313   C318.526489,243.353149 319.826324,228.929733 318.647980,213.461884   C318.505554,211.592636 317.332062,210.456604 316.119293,209.327332   C313.925629,207.284653 311.676117,205.302017 309.450745,203.293350   C304.141815,198.501389 303.161499,192.267853 306.643829,185.449661   C309.501526,179.854462 315.348541,177.309692 321.862579,178.826050   C328.482086,180.366943 332.187134,185.309372 332.349121,192.739609   C332.439636,196.891464 332.001038,201.166168 332.834015,205.170593   C335.870514,219.768005 350.607269,228.465439 366.333069,225.291611   C371.543976,224.239944 376.690247,222.849823 382.084839,224.346725   C385.472412,225.286697 388.223297,226.863968 389.912292,230.531830  z"/>
<path fill="#3b719f" opacity="1.000000" stroke="none" d=" M156.072632,157.341583   C162.993515,149.712921 169.193268,149.303955 177.043045,156.107559   C184.781189,162.814423 193.489807,165.227463 203.441238,162.941040   C210.554382,161.306763 215.386444,157.034882 218.620163,150.404587   C222.617310,142.209000 229.733582,139.754913 236.661667,143.564850   C241.526718,146.240265 243.575073,151.388931 242.320831,157.789413   C241.301575,162.990768 237.627304,167.416672 232.703674,167.089523   C216.185104,165.991974 204.997086,187.096313 213.431519,203.718735   C215.385239,207.569138 217.598419,211.213043 217.398453,215.859955   C217.086975,223.098068 211.779373,229.121368 205.209991,229.190536   C198.677887,229.259308 192.824615,222.828079 192.707016,215.555099   C192.605118,209.253052 193.898376,202.967529 192.727097,196.645523   C191.839203,191.853073 190.548477,187.250565 187.735733,183.203613   C183.633224,177.300980 178.140732,174.553299 170.969513,176.400040   C165.439758,177.824066 160.599731,176.822327 156.936874,172.481674   C153.116348,167.954208 152.792801,162.845459 156.072632,157.341583  z"/>
<path fill="#3b719f" opacity="1.000000" stroke="none" d=" M272.517334,331.663269   C271.967377,343.821411 265.138153,349.510223 255.297668,346.356171   C247.815918,343.958099 245.043320,336.298492 249.032211,328.905304   C250.640564,325.924286 253.149872,323.750061 255.680542,321.548157   C265.453888,313.044617 267.706543,302.122101 265.393463,289.908356   C264.734894,286.430969 262.280945,284.325928 259.241150,282.506653   C254.394211,279.605835 251.204895,275.294800 251.892899,269.335999   C252.515335,263.944885 255.575302,260.179260 260.932983,258.528687   C268.114075,256.316376 275.824158,261.493805 276.400879,268.966034   C276.502747,270.285583 276.447510,271.621643 276.399353,272.947723   C275.888458,287.016968 284.537476,296.624786 298.675110,297.715088   C304.213379,298.142242 309.568451,297.320862 314.960022,296.024780   C321.557617,294.438873 327.391174,297.434021 329.867981,303.108765   C332.168457,308.379517 330.262695,314.644958 325.260162,318.612885   C321.535645,321.567108 317.493164,321.161621 313.430573,319.775970   C308.550720,318.111542 303.694366,316.443115 298.572754,315.628906   C286.544952,313.716858 275.815216,320.134552 272.517334,331.663269  z"/>
<path fill="#3b719f" opacity="1.000000" stroke="none" d=" M209.202332,299.442200   C212.335052,298.259613 214.266754,296.239105 215.916183,293.880859   C217.374466,291.795898 219.221130,290.138123 221.527283,289.049194   C225.776108,287.042877 229.971588,286.977966 233.700897,290.086609   C237.455643,293.216431 238.000839,297.490540 236.862244,301.930756   C235.697021,306.474823 232.384521,308.745300 227.835373,309.331573   C226.515518,309.501648 225.169678,309.875397 223.872681,309.755737   C208.520126,308.339081 199.864151,325.043182 203.241669,337.067719   C204.438477,341.328522 206.050415,345.644226 204.971497,350.269287   C203.449585,356.793182 199.029709,359.676361 192.405945,358.400391   C185.898224,357.146790 182.095810,352.043762 183.087738,345.838440   C183.825226,341.225067 186.150589,337.101349 187.017609,332.476959   C189.390076,319.822876 182.928467,309.947754 170.347153,307.524384   C168.563400,307.180817 166.704620,306.980621 165.039368,306.316132   C160.740982,304.600922 158.602631,301.170624 158.351608,296.648529   C158.082642,291.803101 160.516266,288.403351 164.635101,286.152313   C168.759796,283.898041 172.701721,284.577637 176.252045,287.406891   C177.930878,288.744751 179.462082,290.331146 180.816437,292.002472   C188.351166,301.300537 198.112061,302.172546 209.202332,299.442200  z"/>
<path fill="#3b719f" opacity="1.000000" stroke="none" d=" M284.408081,242.775436   C279.708618,244.220398 275.514923,243.740997 271.378845,242.008926   C266.337189,239.897659 261.061035,239.575439 255.694290,240.204727   C246.082382,241.331787 241.576263,245.758316 240.283646,255.312592   C239.455292,261.435394 235.212250,265.931061 229.451691,266.789429   C225.338120,267.402374 220.640228,264.580841 218.654114,260.304413   C216.486969,255.638168 217.841125,250.912582 223.068985,246.798111   C228.801941,242.286087 232.609833,236.814606 233.982452,229.525101   C235.440262,221.783310 233.756668,215.462784 227.263153,210.576752   C222.350693,206.880356 220.938248,202.576462 222.526520,197.530807   C224.160370,192.340302 229.047974,189.227753 234.005280,190.220856   C239.973190,191.416412 244.453201,196.276627 243.499725,201.624893   C241.025238,215.504501 256.033905,228.328873 270.996887,223.971405   C273.062073,223.369980 275.183075,222.857346 277.313995,222.603531   C284.100983,221.795166 287.457764,223.849655 289.669189,229.948517   C291.568420,235.186279 290.147064,238.856125 284.408081,242.775436  z"/>
<path fill="#3b719f" opacity="1.000000" stroke="none" d=" M294.862946,152.983871   C291.392731,158.827591 291.773712,164.340881 294.589813,169.936127   C296.864044,174.454712 297.195038,178.876923 293.204041,182.761978   C289.828583,186.047852 286.189911,188.502609 281.198639,186.285126   C277.073090,184.452301 274.329651,179.332764 274.933014,174.259323   C275.166595,172.295151 275.646545,170.317612 276.317444,168.455383   C279.463104,159.724060 276.870148,152.139374 271.808899,145.022644   C268.652191,140.583923 264.062744,139.235779 258.881348,138.574753   C251.489090,137.631668 247.744568,133.840652 247.676880,128.125198   C247.619171,123.252525 250.109192,119.932045 254.213394,117.761688   C258.292542,115.604553 262.033569,116.965981 265.314636,119.586769   C266.833832,120.800247 268.056641,122.488609 269.122833,124.148575   C275.883453,134.674164 290.273804,137.086853 299.945160,129.104004   C302.626221,126.891068 304.919006,124.208244 307.394073,121.745171   C310.998657,118.158043 315.300171,117.545937 319.812195,119.380501   C324.114410,121.129761 326.049103,124.845573 326.107239,129.313461   C326.172852,134.359589 323.529999,137.849289 318.801422,139.517487   C315.678467,140.619232 312.385895,141.232422 309.236816,142.269485   C303.405518,144.189896 298.396729,147.310196 294.862946,152.983871  z"/>
<path fill="#3b719f" opacity="1.000000" stroke="none" d=" M291.832825,351.204498   C288.447418,347.650726 285.368042,344.217407 286.474152,339.189850   C287.647919,333.854706 293.131958,330.283417 299.025970,330.693268   C304.182739,331.051788 307.605469,334.768860 308.255432,340.745483   C308.649536,344.369446 307.750824,348.066193 308.942169,351.652985   C311.836853,360.368103 322.886475,366.823456 332.164459,365.074982   C335.426392,364.460297 338.597687,363.272247 341.875275,362.850006   C351.431854,361.618927 357.151520,369.116791 353.689880,378.120148   C351.538544,383.715546 346.453552,385.804626 339.577271,383.599304   C334.027130,381.819275 328.606110,379.913086 322.588776,380.199615   C311.582336,380.723755 305.578705,386.185120 304.275543,397.179657   C303.753540,401.583527 301.929047,405.118317 297.168579,406.384613   C292.275543,407.686157 287.700470,407.072479 284.394745,403.154510   C281.298920,399.485291 282.505524,395.374115 284.562469,391.472931   C286.241028,388.289490 288.842468,385.923431 291.522797,383.712402   C300.188385,376.563843 299.484589,363.483887 297.404266,356.460754   C296.609375,353.777222 294.163452,352.809662 291.832825,351.204498  z"/>
<path fill="#3b719f" opacity="1.000000" stroke="none" d=" M217.584167,404.030151   C210.151077,398.964203 209.822372,391.894440 216.546448,386.675537   C220.254196,383.797760 223.858307,380.885437 226.333084,376.814270   C230.280991,370.319702 229.679291,363.685364 224.629150,357.993927   C223.523956,356.748413 222.367523,355.541107 221.347626,354.228455   C217.584351,349.384949 218.040527,344.569153 222.478882,341.717438   C227.591965,338.432190 233.520325,339.558960 236.375412,344.399048   C237.575531,346.433563 238.179504,348.632233 238.321182,351.029602   C238.841309,359.831604 246.358765,368.168396 254.978531,369.746277   C256.904480,370.098816 258.580902,369.629181 260.269287,368.816711   C263.906921,367.066193 267.518250,368.023773 270.909180,369.402405   C274.399078,370.821228 276.053589,375.482574 274.807617,379.171021   C273.313293,383.594696 268.210938,386.712982 263.768829,385.720428   C262.180176,385.365479 260.425079,384.825928 259.225372,383.806458   C249.638199,375.659973 235.183212,382.630463 231.515060,393.788361   C230.401962,397.174194 229.135468,400.371674 226.078110,402.494324   C223.618210,404.202179 220.889084,404.631592 217.584167,404.030151  z"/>
<path fill="#3b719f" opacity="1.000000" stroke="none" d=" M138.841095,320.774963   C138.405502,318.775879 137.766983,317.146973 137.835815,315.548523   C137.965271,312.542267 139.316772,310.004913 142.351501,309.009064   C144.876633,308.180389 147.310226,308.672821 149.190536,310.749634   C151.264908,313.040802 151.887085,315.663818 150.747299,318.595367   C146.043594,330.693359 149.371490,337.012360 161.898453,339.778229   C164.936722,340.449066 166.913971,342.173584 167.438385,345.390625   C167.994980,348.805237 166.370483,351.100616 163.810059,353.022919   C161.162323,355.010742 158.819504,354.114899 156.552963,352.358337   C153.534775,350.019348 150.700974,347.395966 147.493546,345.358185   C142.212936,342.003174 138.602478,342.569214 134.032455,346.765778   C132.572983,348.105988 131.085510,349.472748 129.415955,350.515137   C126.049362,352.616974 122.811058,352.779266 120.325432,349.055084   C117.911873,345.438873 118.764137,341.884247 122.532433,339.170380   C124.233734,337.945129 126.228638,337.797668 128.143036,337.285339   C135.341217,335.359100 140.208008,328.056732 138.841095,320.774963  z"/>
</svg>